#!OML:ASF E:/inclinewalkrobotboard/Project1/Captureday1/Session1/subject1.ASF
:FULLY-SPECIFIED
:DEGREES
188
root 0 0 0 14.790384969170765 -0.6937555386458847 -1.6477630262755234
lowerback 22.95071025609961 -0.657141950552012 -0.9498666191255902
upperback -1.189745167760857 -1.4130402194410343 2.4623658477085657
thorax -13.56956744747297 -0.49612731019333933 3.292200711198371
lowerneck -11.573782040271952 8.111823579368783 17.817835906493794
upperneck 31.447269116917 7.867079074994473 -4.785087666465988
head 13.4416963404508 5.081717653509912 -3.703783174754587
rclavicle 4.397095248277253E-15 6.438862072321173E-15
rhumerus 31.774208554007757 22.85975878212174 -78.17179823166784
rradius 97.02276934831073
rwrist -37.05648377064489
rhand -26.014379348218597 -21.85886122043193
rfingers 7.125020000000001
rthumb 0.5484590236652132 -52.39089377559088
lclavicle -3.611103264883071E-15 5.8000735926103555E-15
lhumerus 24.512601148153358 -37.28649039279796 75.59701207610519
lradius 143.1837129829633
lwrist 10.717631305893743
lhand -33.29983160233974 9.106356655247833
lfingers 7.1250199999999415
lthumb -6.484440263235303 39.58498131037334
rfemur -50.68064456166955 5.254167936068635 28.89534212154172
rtibia 43.86802560996156
rfoot -22.995524987831146 -4.995691356540881
rtoes -42.01589672086361
lfemur -40.086285953555155 -14.59594772883421 -18.83569934011974
ltibia 30.69772115891612
lfoot -33.78859214898547 -0.22748296766464549
ltoes -43.57708181893075
189
root 0 0 0 15.052419011580607 -2.312660903478463 -1.3625329890490887
lowerback 22.709685890750496 -1.3369036243770884 -1.2487413868410169
upperback -1.0883940273246901 -2.337670121423229 2.7316216555021686
thorax -13.400715938840555 -0.9294666276989695 3.835403917426938
lowerneck -11.333584185459872 8.33385573688258 17.94450884801209
upperneck 29.778139542249722 8.358208952948358 -5.163867514305244
head 12.816033321233295 5.2115969010834196 -3.7879602160164016
rclavicle 4.370930939017497E-15 6.562352055106269E-15
rhumerus 30.46893995208914 23.21454600971196 -77.90877705999412
rradius 101.27989338973832
rwrist -38.50990562349209
rhand -25.656520394399227 -22.224070319006778
rfingers 7.125019999999999
rthumb 0.8955815862248535 -52.73034769210517
lclavicle -3.5191369658154266E-15 5.6171261784028254E-15
lhumerus 24.529061111031112 -37.06331924708641 75.21472620507078
lradius 142.73321932090457
lwrist 10.035010531079834
lhand -33.47681443765226 8.851718498251635
lfingers 7.12501999999994
lthumb -6.652809741416418 39.33350652053316
rfemur -52.336045682738835 5.443143377254684 28.384157386060675
rtibia 44.68780333852436
rfoot -24.079908489848318 -4.712590982658009
rtoes -41.71135344757052
lfemur -40.214306828698156 -15.45189121443482 -17.76106948657432
ltibia 28.293014079674755
lfoot -35.672050987381766 0.4835201522031589
ltoes -42.325387409988295
190
root 0 0 0 15.530387853303875 -3.4971603682174024 -1.1222878956588342
lowerback 22.291792146278073 -1.9996673175558362 -1.4847067878077465
upperback -0.9525272683034292 -3.22057323027728 3.0171693599635425
thorax -13.107472512511716 -1.3514410545849516 4.349585378670248
lowerneck -11.130388631476125 8.609723566275326 18.044083629988066
upperneck 27.650784767295686 9.026244703371944 -5.799097446350344
head 12.030869122351172 5.382500783019317 -3.935125715993465
rclavicle 4.053322497407271E-15 6.4591963557752195E-15
rhumerus 29.961377823998397 22.90415330102688 -77.21888416998209
rradius 103.59245723714076
rwrist -39.31275136777069
rhand -25.415093289143954 -22.591677282700548
rfingers 7.125019999999998
rthumb 1.1319033688742568 -53.0818860971036
lclavicle -3.5383249222166792E-15 5.579649848294816E-15
lhumerus 24.76463790415921 -36.712490051067626 74.78803708129406
lradius 142.5068459801981
lwrist 9.630089575158776
lhand -33.535622974317775 8.671812161379966
lfingers 7.125019999999939
lthumb -6.70703840459802 39.152767971785146
rfemur -53.19896085018409 5.396173105153034 28.258153277307624
rtibia 45.3822193253761
rfoot -24.914099315526002 -4.343366824098869
rtoes -41.461112993699686
lfemur -41.57485545083364 -15.473704982132501 -16.8531122251826
ltibia 28.44313472326494
lfoot -36.913518803788484 0.6036225227462992
ltoes -41.21870515744308
191
root 0 0 0 16.3804935913247 -4.322331207533313 -0.961546138020767
lowerback 21.773408651944905 -2.7076704982714617 -1.550047325824281
upperback -0.7882211754108823 -4.135067112789463 3.408354489406646
thorax -12.747864492521577 -1.8005793148806402 4.880360207888204
lowerneck -10.737664185449496 8.927833998168932 18.147957083166297
upperneck 24.643873659162136 9.910742181404284 -6.890299109720486
head 10.936941406645348 5.595486210574631 -4.207586647457111
rclavicle 2.8849178843202436E-15 5.7399594459463E-15
rhumerus 29.51433833087432 22.518231554394973 -76.33818667662099
rradius 107.01336588420568
rwrist -40.53423677876482
rhand -25.108030139329983 -22.90145961032374
rfingers 7.125019999999996
rthumb 1.4327276188937912 -53.372036840206746
lclavicle -3.748014848888733E-15 5.3764217542076314E-15
lhumerus 25.16256739719045 -36.43086028016592 74.38304904723512
lradius 142.45271084419733
lwrist 9.338990953718106
lhand -33.54167260522748 8.498567289294382
lfingers 7.125019999999938
lthumb -6.710169871725611 38.97566757105896
rfemur -53.212333854843735 5.052080899265896 28.446831863198366
rtibia 45.95933926838906
rfoot -25.404055119185042 -3.91355505639331
rtoes -41.204866730235786
lfemur -44.89916474358521 -14.61938613817665 -15.813466263839022
ltibia 31.360076104654475
lfoot -37.7912476214146 0.08573816438915571
ltoes -40.1731526038486
192
root 0 0 0 16.81362024171799 -4.402331004392249 -1.0034916341069797
lowerback 21.559872029768684 -2.930122452133846 -1.4295364197671234
upperback -0.7837504662220685 -4.404021612932083 3.611264451700718
thorax -12.670223406326649 -1.9366125693735845 5.057345078231933
lowerneck -10.406440106062878 8.996102970248199 18.18980133835977
upperneck 23.385463662808707 10.196551902049531 -7.409638089124659
head 10.476781643985145 5.653205231112422 -4.348387394385633
rclavicle 2.151866012205318E-15 5.2257310483163496E-15
rhumerus 29.3161186754204 22.318704298698943 -75.93000781095931
rradius 108.72236497027177
rwrist -41.175901322509304
rhand -24.958528353899062 -23.01389278630006
rfingers 7.125019999999994
rthumb 1.5788340654151636 -53.47507648646375
lclavicle -3.920879163992904E-15 5.181754611365235E-15
lhumerus 25.3480612876398 -36.400180454176514 74.26357525823228
lradius 142.491519622967
lwrist 9.243210094612394
lhand -33.55128484325827 8.4293058911497
lfingers 7.125019999999937
lthumb -6.718479224950581 38.9047025636196
rfemur -52.82806222558143 4.760870490000885 28.668213934777597
rtibia 46.15379649669227
rfoot -25.412510937140986 -3.7112541892291233
rtoes -41.09750953699806
lfemur -47.40034044551905 -13.557427960951749 -15.436289804873175
ltibia 34.46507414010843
lfoot -37.64292370231776 -0.7028757434702939
ltoes -39.97876296554558
193
root 0 0 0 17.120463084128723 -4.318408559309546 -1.0846236489889822
lowerback 21.41650169350669 -3.0435787509918972 -1.284530864331317
upperback -0.8102801234813928 -4.529232729476598 3.7696858783793914
thorax -12.651025238921186 -2.001977523724336 5.1612599801078325
lowerneck -10.10062004647413 9.013630829623445 18.226137020808817
upperneck 22.59627620453761 10.34841100311383 -7.7748710116964705
head 10.185408856530819 5.679092442531982 -4.453294282458277
rclavicle 1.6398931878399305E-15 4.693010045411645E-15
rhumerus 29.115020846118487 22.504338627508613 -75.88913222446429
rradius 110.39380233405322
rwrist -41.85623800865815
rhand -24.85594477389514 -23.02486327333677
rfingers 7.125019999999991
rthumb 1.6775224560153 -53.47923210318974
lclavicle -4.158674369810115E-15 4.865692461147785E-15
lhumerus 25.396620334636886 -36.567406037136536 74.3405658209291
lradius 142.60595590579842
lwrist 9.260430012855581
lhand -33.58193075980348 8.418822076386753
lfingers 7.125019999999936
lthumb -6.747938386918618 38.895165225219614
rfemur -52.41050239127484 4.5396223275198775 28.920776204896505
rtibia 46.25991531029709
rfoot -25.426691466889373 -3.5513099830846944
rtoes -40.96643519289468
lfemur -50.030805644755105 -12.088458280096878 -15.33003505046
ltibia 38.432292646000704
lfoot -36.91833774075724 -1.8899559978940967
ltoes -40.14670078599149
194
root 0 0 0 17.319347457880777 -4.179657540919234 -1.1500169197934347
lowerback 21.306847073629946 -3.100143073904075 -1.1661484364654398
upperback -0.8392484259919302 -4.58347406888862 3.885341061605337
thorax -12.641416386877815 -2.0312738898267826 5.22760683501858
lowerneck -9.88017668793557 9.001433283882843 18.24128920315851
upperneck 22.1562502927398 10.409427487719379 -7.9978361595748
head 10.017722407961456 5.68158933001163 -4.519749721974987
rclavicle 1.3060581552813134E-15 4.159185658982008E-15
rhumerus 28.89194665063067 23.05454619873643 -76.15943522759002
rradius 112.13873403568944
rwrist -42.566863033703804
rhand -24.791179042929357 -22.925446052899947
rfingers 7.1250199999999895
rthumb 1.738307026283465 -53.37527505589058
lclavicle -4.402097544367756E-15 4.500018548377179E-15
lhumerus 25.347661889098347 -36.85668972216582 74.54340771708752
lradius 142.75685950363757
lwrist 9.34097998982421
lhand -33.62479962360367 8.442684610141292
lfingers 7.125019999999934
lthumb -6.789656548290896 38.92142256371399
rfemur -51.98357065886218 4.36222478016891 29.17014716145189
rtibia 46.30346785951994
rfoot -25.43218000142622 -3.424514924971554
rtoes -40.854329780078885
lfemur -52.27029352393627 -10.461929314417384 -15.454141097373254
ltibia 42.43621766656537
lfoot -35.76089866234382 -3.19287291675945
ltoes -40.50713178264527
195
root 0 0 0 17.432726840055178 -4.036588174246198 -1.1838910707907857
lowerback 21.22092222332881 -3.123110187642851 -1.0854088443154026
upperback -0.8622945188898239 -4.598479307903205 3.9630196535818936
thorax -12.62933414799944 -2.040052292050872 5.270012013704047
lowerneck -9.748090522210944 8.9680095760599 18.228699222645766
upperneck 21.957019823270663 10.405653540533418 -8.111565495492759
head 9.93542785859982 5.665388422618882 -4.554436848108784
rclavicle 1.09351976337831E-15 3.678697558541258E-15
rhumerus 28.646998721528867 23.790268333366903 -76.60991613784648
rradius 113.72245635937699
rwrist -43.18999298109745
rhand -24.74864022092476 -22.74273323886606
rfingers 7.125019999999988
rthumb 1.777247243538568 -53.1893474764374
lclavicle -4.56863294845138E-15 4.172576198472757E-15
lhumerus 25.251681226655435 -37.161756353080776 74.77981583118293
lradius 142.89271199538456
lwrist 9.435321696043829
lhand -33.65923437980477 8.476923675658995
lfingers 7.1250199999999335
lthumb -6.823373805694578 38.957693308970974
rfemur -51.59829489436956 4.215612404427263 29.375884010206068
rtibia 46.319722735171226
rfoot -25.427987085826185 -3.328584289651209
rtoes -40.74912380576673
lfemur -53.84473769520195 -8.976760820884259 -15.724382428806129
ltibia 45.813453920628696
lfoot -34.445350165305676 -4.382482638147948
ltoes -40.86009115459009
